<svg width="376" height="400" viewBox="0 0 376 400" fill="none" xmlns="http://www.w3.org/2000/svg">
<path d="M51.5471 254.621H15.8321C12.5563 254.671 9.39479 253.418 7.04267 251.137C4.69055 248.857 3.34038 245.736 3.28906 242.46C3.34091 239.184 4.69129 236.064 7.04336 233.784C9.39542 231.504 12.5567 230.251 15.8321 230.301H51.5471C54.8225 230.251 57.9837 231.504 60.3358 233.784C62.6878 236.064 64.0382 239.184 64.0901 242.46C64.0387 245.736 62.6886 248.857 60.3365 251.137C57.9843 253.418 54.8228 254.671 51.5471 254.621Z" fill="#BEC8D2"/>
<path d="M35.2089 254.621H32.1689V391.424H35.2089V254.621Z" fill="black"/>
<path d="M45.8493 391.424H21.5293V397.504H45.8493V391.424Z" fill="#1E0A00"/>
<path d="M249.533 187.74H97.5303V199.9H249.533V187.74Z" fill="#273237"/>
<path d="M134.012 199.9H127.932V397.504H134.012V199.9Z" fill="#273237"/>
<path d="M219.133 199.9H213.053V397.504H219.133V199.9Z" fill="#273237"/>
<path d="M152.338 337.267L131.838 345.923L144.252 372.654L164.752 363.998L152.338 337.267Z" fill="#E1AAA5"/>
<path d="M144.256 372.655L164.365 364.162L205.134 367.907L145.334 392.36L144.256 372.655Z" fill="black"/>
<path d="M162.89 388.296C161.974 388.708 161.256 389.461 160.89 390.396C160.523 391.331 160.538 392.372 160.931 393.296L147.78 398.71L145.333 392.36L205.133 367.906L207.582 374.258L167.882 390.458V390.447C167.696 389.978 167.419 389.55 167.067 389.188C166.715 388.826 166.296 388.537 165.832 388.337C165.368 388.137 164.87 388.031 164.365 388.024C163.86 388.017 163.359 388.109 162.89 388.296Z" fill="white"/>
<path d="M98.6597 237.959L112.201 252.766C122.072 263.561 130.393 275.677 136.924 288.766L162.917 350.015L132.417 361.345L106.661 296.435L61.5527 248.335L98.6597 237.959Z" fill="#141937"/>
<path d="M95.8567 342.439H73.6077L64.7227 373.214H86.9717L95.8567 342.439Z" fill="#E1AAA5"/>
<path d="M64.7208 373.214H86.5498L122.65 392.525L58.0498 391.785L64.7208 373.214Z" fill="black"/>
<path d="M75.8011 394.874C74.7974 394.896 73.8424 395.311 73.141 396.029C72.4397 396.747 72.048 397.712 72.0501 398.716L57.8291 398.589L58.0441 391.789L122.644 392.53L122.429 399.33L79.5541 398.809V398.796C79.5758 397.778 79.1928 396.794 78.4891 396.059C77.7854 395.323 76.8186 394.897 75.8011 394.874Z" fill="white"/>
<path d="M12.1288 207.036C12.1288 207.036 6.86176 229.92 48.9838 246.73L83.4838 275.143L60.6968 363.91H93.6968L120.925 283.636C123.218 278.556 123.837 272.879 122.694 267.425C121.551 261.97 118.704 257.02 114.565 253.288L64.5768 201.876L12.1288 207.036Z" fill="#1E2351"/>
<path d="M82.0723 183.689C84.309 186.674 87.6062 188.685 91.2833 189.309L157.191 183.615L158.842 174.15L98.3213 168.55L82.0723 183.689Z" fill="#D2A096"/>
<path d="M157.721 174.15C157.721 174.15 180.909 164.244 185.387 183.615H156.073L157.721 174.15Z" fill="#D2A096"/>
<path d="M44.1318 152.94L82.3218 185.518C84.5022 187.378 87.2969 188.361 90.1619 188.275C93.027 188.188 95.7575 187.039 97.8218 185.051C98.9285 183.984 99.811 182.707 100.418 181.295C101.024 179.883 101.343 178.364 101.355 176.827C101.367 175.29 101.071 173.767 100.487 172.345C99.9017 170.924 99.0389 169.634 97.9488 168.551L64.0688 134.893L44.1318 152.94Z" fill="#D2A096"/>
<path d="M78.5497 143.633L56.4896 165.033L26.3066 144.033C26.3066 144.033 30.1536 126.966 41.9936 123.55C53.8336 120.134 65.1947 134.805 78.5497 143.633Z" fill="#647BF4"/>
<path d="M32.6115 119.668L14.4115 129.023C12.9006 129.799 11.6328 130.976 10.7477 132.426C9.86258 133.876 9.39436 135.541 9.39453 137.24V158.563L12.1295 207.61L64.5765 202.45L62.4975 140.001C62.3677 136.111 60.9552 132.373 58.4801 129.368C56.005 126.364 52.6061 124.263 48.8125 123.391L32.6115 119.668Z" fill="#647BF4"/>
<path d="M18.9395 126.694L32.6115 119.668L44.7725 122.462C44.7725 122.462 52.3005 127.727 47.3045 131.242C35.5035 139.541 18.9395 126.694 18.9395 126.694Z" fill="#E1AAA5"/>
<path d="M62.9461 158.766C63.1161 158.602 62.4961 140.002 62.4961 140.002" stroke="black" stroke-width="0.5" stroke-linecap="round" stroke-linejoin="round"/>
<path d="M84.2236 166.816L87.0716 156.316C87.2837 155.533 87.6582 154.804 88.1708 154.175C88.6834 153.547 89.3225 153.033 90.0466 152.668L100.319 147.488L99.1976 152.048L95.3796 154.909C95.2559 154.962 95.1444 155.04 95.052 155.138C94.9595 155.236 94.8879 155.352 94.8417 155.478C94.7955 155.605 94.7755 155.74 94.7831 155.874C94.7906 156.009 94.8255 156.14 94.8856 156.261C95.1796 156.844 95.7706 156.887 96.3556 156.593L112.799 148.301C112.799 148.301 118.699 152.286 111.138 160.657C103.577 169.028 96.9516 169.383 88.6546 175.606L84.2236 166.816Z" fill="#E1AAA5"/>
<path d="M95.7725 156.883L98.6475 142.883C98.6826 142.71 98.7586 142.547 98.869 142.41C98.9795 142.272 99.1212 142.162 99.2825 142.09L114.206 136.348C114.386 136.268 114.583 136.236 114.778 136.257C114.973 136.278 115.16 136.35 115.318 136.466C115.476 136.582 115.601 136.738 115.68 136.917C115.759 137.097 115.789 137.295 115.766 137.49L112.691 148.354L95.7725 156.883Z" fill="#283237"/>
<path d="M84.944 164.699L45.865 182.73C43.4415 183.787 41.5335 185.758 40.5558 188.215C39.5781 190.671 39.6098 193.414 40.644 195.848C43.16 201.764 50.512 203.821 58.263 200.067L89.935 174.641L84.944 164.699Z" fill="#E1AAA5"/>
<path d="M24.6239 145.36L58.1729 182.698C60.0885 184.83 61.1426 187.598 61.13 190.464C61.1174 193.331 60.0391 196.09 58.1049 198.205C57.0671 199.34 55.813 200.256 54.4162 200.899C53.0194 201.543 51.5081 201.901 49.9711 201.952C48.434 202.004 46.9022 201.748 45.4655 201.199C44.0288 200.65 42.7163 199.82 41.6049 198.757L7.08691 165.757L24.6239 145.36Z" fill="#E1AAA5"/>
<path d="M10.3368 176.76L38.7278 157.36L16.9568 127.727C16.9568 127.727 4.27879 132.052 1.16879 143.976C-1.94121 155.9 1.1688 163.638 10.3368 176.76Z" fill="#647BF4"/>
<path d="M36.67 158.766L24.624 145.36" stroke="black" stroke-width="0.5" stroke-linecap="round" stroke-linejoin="round"/>
<path d="M14.8755 173.659L10.6855 176.522" stroke="black" stroke-width="0.5" stroke-linecap="round" stroke-linejoin="round"/>
<path d="M20.7616 87.5L15.7256 117.83L62.9026 119.577L59.0486 89.664L20.7616 87.5Z" fill="#371405"/>
<path d="M20.5586 89.4869C19.9766 100.528 28.1286 110.015 38.7636 110.678C49.3986 111.341 55.8846 102.386 59.0736 91.8849C62.9476 79.1269 51.5036 71.3589 40.8666 70.6949C30.2296 70.0309 21.1396 78.4469 20.5586 89.4869Z" fill="#371405"/>
<path d="M52.7261 100.542C52.8389 101.187 53.0818 101.802 53.44 102.35C53.7981 102.898 54.2641 103.368 54.8095 103.73C55.3549 104.092 55.9683 104.34 56.6124 104.458C57.2565 104.575 57.9178 104.561 58.5561 104.415C59.8474 104.013 60.9358 103.132 61.5981 101.953C62.2603 100.774 62.446 99.3856 62.1171 98.0738C62.0044 97.4288 61.7616 96.8134 61.4035 96.2652C61.0454 95.717 60.5794 95.2475 60.034 94.8851C59.4885 94.5228 58.8751 94.2753 58.2309 94.1576C57.5868 94.04 56.9254 94.0547 56.2871 94.2008C54.9959 94.603 53.9076 95.484 53.2455 96.6631C52.5833 97.8422 52.3975 99.23 52.7261 100.542Z" fill="#DD9790"/>
<path d="M44.8517 110.647L43.3747 131.29L29.3457 129.54L33.9807 98.4731L44.8517 110.647Z" fill="#E1AAA5"/>
<path d="M44.0729 121.532L34.9199 107.579L44.8519 110.647L44.0729 121.532Z" fill="#DD9790"/>
<path d="M57.1973 79.8888C58.3933 81.1774 59.1436 82.8163 59.3373 84.5637C60.0183 89.8097 61.4103 99.0638 59.4323 104.464C56.8613 111.487 51.2503 116.229 42.7073 113.906C42.7073 113.906 32.4173 112.126 31.0403 97.7357C28.8443 74.8027 46.9533 69.3238 57.1973 79.8888Z" fill="#E1AAA5"/>
<path d="M54.3999 100.289L55.0719 102.695C55.0964 102.834 55.068 102.977 54.9924 103.097C54.9167 103.216 54.7993 103.303 54.6629 103.341L53.4199 103.512" stroke="black" stroke-width="0.5" stroke-linecap="round" stroke-linejoin="round"/>
<path d="M46.7604 97.1197C46.7197 97.456 46.8119 97.7949 47.0174 98.0642C47.2228 98.3335 47.5253 98.512 47.8604 98.5617C48.0263 98.5719 48.1926 98.549 48.3495 98.4942C48.5064 98.4394 48.6508 98.3539 48.7743 98.2426C48.8978 98.1313 48.9978 97.9966 49.0686 97.8462C49.1393 97.6958 49.1794 97.5328 49.1864 97.3667C49.227 97.0304 49.1348 96.6915 48.9294 96.4222C48.7239 96.1529 48.4215 95.9743 48.0864 95.9247C47.9205 95.9146 47.7543 95.9376 47.5974 95.9924C47.4405 96.0473 47.2962 96.1328 47.1727 96.244C47.0493 96.3553 46.9493 96.49 46.8785 96.6404C46.8077 96.7907 46.7675 96.9537 46.7604 97.1197Z" fill="black"/>
<path d="M56.5153 97.6586C56.4759 97.9705 56.5605 98.2854 56.7509 98.5357C56.9412 98.7859 57.2222 98.9514 57.5333 98.9966C57.6872 99.006 57.8413 98.9847 57.9868 98.9339C58.1324 98.8831 58.2663 98.8038 58.3808 98.7006C58.4953 98.5975 58.5881 98.4725 58.6538 98.3331C58.7195 98.1937 58.7567 98.0426 58.7633 97.8886C58.8028 97.5767 58.7182 97.2617 58.5278 97.0115C58.3374 96.7613 58.0565 96.5958 57.7453 96.5506C57.5915 96.541 57.4372 96.5622 57.2917 96.613C57.1461 96.6638 57.0121 96.7431 56.8976 96.8462C56.783 96.9494 56.6902 97.0744 56.6246 97.2139C56.559 97.3534 56.5218 97.5046 56.5153 97.6586Z" fill="black"/>
<path d="M52.7179 108.405C51.7932 108.764 50.7838 108.846 49.8133 108.64C48.8428 108.434 47.9533 107.95 47.2539 107.247" stroke="black" stroke-width="0.5" stroke-linecap="round" stroke-linejoin="round"/>
<path d="M56.5719 90.3779C56.492 90.5742 56.4578 90.786 56.4718 90.9975C56.4858 91.2089 56.5476 91.4145 56.6525 91.5986C56.7575 91.7827 56.9028 91.9405 57.0777 92.0603C57.2525 92.18 57.4523 92.2585 57.6619 92.2898C58.6224 92.5006 59.5527 92.8312 60.4309 93.2739C60.6207 93.3863 60.846 93.4227 61.0616 93.3758C61.2772 93.3289 61.467 93.2021 61.5929 93.0209C61.7049 92.8671 61.7733 92.686 61.7909 92.4966C61.8085 92.3072 61.7747 92.1166 61.6929 91.9448C61.436 91.4006 61.0679 90.9163 60.6123 90.5231C60.1567 90.1299 59.6238 89.8365 59.0479 89.6619C57.0719 89.0679 56.5719 90.3779 56.5719 90.3779Z" fill="black"/>
<path d="M50.6232 89.8347C50.6232 89.8347 51.0142 91.3807 48.8032 91.4177C47.2195 91.5089 45.6484 91.7541 44.1122 92.1497C43.8512 92.215 43.5764 92.1978 43.3257 92.1003C43.0749 92.0029 42.8606 91.8301 42.7122 91.6057C42.6078 91.4392 42.5637 91.242 42.5872 91.0469C42.6107 90.8518 42.7003 90.6707 42.8412 90.5337C44.2072 89.3734 45.8991 88.6646 47.6842 88.5047C50.3052 88.4317 50.6232 89.8347 50.6232 89.8347Z" fill="black"/>
<path d="M34.1123 75.228C34.1123 75.228 39.8923 86.95 59.5123 86.338C59.5123 86.338 60.4953 76.867 48.3743 73.312L34.1123 75.228Z" fill="#371405"/>
<path d="M37.6814 81.9497L35.5754 97.0677L22.8154 85.7467L37.6814 81.9497Z" fill="#371405"/>
<path d="M33.601 87.9259C33.601 87.9259 44.582 84.9559 45.491 77.2109C43.4122 76.1722 41.0721 75.7732 38.7666 76.0642C36.461 76.3552 34.2935 77.3233 32.538 78.8459C25.97 84.1579 33.601 87.9259 33.601 87.9259Z" fill="#371405"/>
<path d="M27.0969 100.034C27.228 100.783 27.5103 101.498 27.9265 102.135C28.3428 102.772 28.8843 103.317 29.5181 103.738C30.1519 104.159 30.8647 104.447 31.6132 104.584C32.3617 104.72 33.1302 104.703 33.8718 104.534C35.3727 104.067 36.6378 103.043 37.4075 101.672C38.1772 100.302 38.3931 98.6884 38.0109 97.1637C37.8798 96.414 37.5976 95.6989 37.1813 95.0619C36.765 94.4248 36.2234 93.8792 35.5895 93.4582C34.9556 93.0371 34.2425 92.7496 33.4939 92.613C32.7452 92.4764 31.9766 92.4937 31.2349 92.6637C29.7342 93.131 28.4693 94.1551 27.6998 95.5256C26.9303 96.8961 26.7146 98.5092 27.0969 100.034Z" fill="#E1AAA5"/>
<path d="M30.1191 96.6656C30.1191 96.6656 33.9901 95.5246 34.5121 100.135L30.1191 96.6656Z" fill="#E1AAA5"/>
<path d="M30.1191 96.6656C30.1191 96.6656 33.9901 95.5246 34.5121 100.135" stroke="black" stroke-width="0.5" stroke-linecap="round" stroke-linejoin="round"/>
<path d="M363.458 255.457H327.743C324.46 255.5 321.294 254.237 318.942 251.946C316.59 249.655 315.244 246.524 315.2 243.241C315.244 239.958 316.59 236.827 318.942 234.536C321.295 232.246 324.46 230.983 327.743 231.026H363.458C366.741 230.983 369.907 232.246 372.259 234.536C374.611 236.827 375.957 239.958 376.001 243.241C375.957 246.524 374.611 249.655 372.259 251.946C369.907 254.237 366.741 255.5 363.458 255.457Z" fill="#BEC8D2"/>
<path d="M347.12 255.457H344.08V392.88H347.12V255.457Z" fill="black"/>
<path d="M357.76 392.879H333.44V398.987H357.76V392.879Z" fill="#1E0A00"/>
<path d="M183.968 183.171H113.339V188.263H183.968V183.171Z" fill="#B1BAC4"/>
<path d="M184.627 188.271C184.354 188.272 184.086 188.2 183.849 188.063C183.674 187.964 183.521 187.83 183.398 187.671C183.275 187.511 183.185 187.329 183.133 187.134C183.081 186.94 183.068 186.737 183.095 186.537C183.122 186.337 183.188 186.145 183.291 185.971L213.817 134.063C214.026 133.712 214.365 133.456 214.761 133.353C215.157 133.249 215.578 133.305 215.932 133.509C216.107 133.609 216.26 133.743 216.383 133.902C216.506 134.062 216.596 134.244 216.648 134.439C216.7 134.633 216.713 134.836 216.686 135.036C216.659 135.235 216.593 135.427 216.491 135.601L185.964 187.509C185.827 187.742 185.632 187.935 185.397 188.069C185.162 188.202 184.897 188.272 184.627 188.271Z" fill="#B1BAC4"/>
<path d="M228.144 335.677L247.955 344.044L235.955 369.882L216.144 361.515L228.144 335.677Z" fill="#E1AAA5"/>
<path d="M235.955 369.885L216.518 361.676L177.112 365.296L234.912 388.932L235.955 369.885Z" fill="#8CD2AA"/>
<path d="M217.944 385.001C218.829 385.398 219.523 386.127 219.877 387.03C220.231 387.933 220.217 388.939 219.838 389.833L232.55 395.066L234.915 388.928L177.115 365.292L174.748 371.43L213.121 387.09V387.079C213.301 386.625 213.569 386.212 213.909 385.862C214.249 385.513 214.654 385.233 215.102 385.04C215.55 384.847 216.031 384.745 216.519 384.738C217.007 384.731 217.491 384.82 217.944 385.001Z" fill="white"/>
<path d="M280.028 239.687L266.939 254C257.396 264.434 249.352 276.147 243.039 288.8L217.915 348L247.399 358.951L272.294 296.21L315.894 249.71L280.028 239.687Z" fill="#283782"/>
<path d="M282.739 340.676H304.239L312.829 370.423H291.327L282.739 340.676Z" fill="#E1AAA5"/>
<path d="M312.832 370.423H291.732L256.839 389.089L319.287 388.378L312.832 370.423Z" fill="#8CD2AA"/>
<path d="M302.124 391.359C303.094 391.381 304.017 391.781 304.694 392.476C305.372 393.17 305.751 394.102 305.749 395.072L319.495 394.949L319.287 388.373L256.843 389.089L257.051 395.663L298.493 395.163V395.151C298.482 394.664 298.568 394.179 298.744 393.725C298.921 393.27 299.186 392.855 299.523 392.503C299.86 392.151 300.263 391.869 300.71 391.672C301.156 391.476 301.636 391.37 302.124 391.359Z" fill="white"/>
<path d="M363.666 209.797C363.666 209.797 368.757 231.916 328.043 248.164L294.695 275.628L316.717 361.428H284.826L258.508 283.837C256.291 278.927 255.692 273.44 256.797 268.167C257.902 262.895 260.654 258.11 264.655 254.503L312.972 204.809L363.666 209.797Z" fill="#3C4BA0"/>
<path d="M296.06 187.232C293.899 190.116 290.714 192.061 287.16 192.665L223.454 187.165L221.854 178.016L280.354 172.599L296.06 187.232Z" fill="#D2A096"/>
<path d="M222.936 178.011C222.936 178.011 200.523 168.436 196.194 187.16H224.532L222.936 178.011Z" fill="#D2A096"/>
<path d="M332.734 157.509L295.815 188.998C293.707 190.796 291.007 191.746 288.238 191.663C285.469 191.579 282.83 190.469 280.835 188.547C279.764 187.516 278.911 186.282 278.324 184.917C277.737 183.551 277.429 182.082 277.417 180.596C277.406 179.11 277.691 177.637 278.257 176.263C278.823 174.889 279.657 173.641 280.712 172.594L313.459 140.061L332.734 157.509Z" fill="#D2A096"/>
<path d="M299.466 148.514L320.789 169.197L349.963 148.897C349.963 148.897 346.245 132.397 334.801 129.097C323.357 125.797 312.374 139.98 299.466 148.514Z" fill="#EBB450"/>
<path d="M343.87 125.35L361.458 134.393C362.918 135.143 364.143 136.281 364.999 137.682C365.854 139.083 366.307 140.693 366.307 142.335V162.945L363.664 210.353L312.97 205.366L314.98 145.004C315.105 141.244 316.47 137.631 318.863 134.727C321.255 131.823 324.54 129.792 328.207 128.949L343.87 125.35Z" fill="#EBB450"/>
<path d="M357.086 132.141L343.871 125.35L332.117 128.05C332.117 128.05 324.841 133.139 329.67 136.536C341.075 144.559 357.086 132.141 357.086 132.141Z" fill="#E1AAA5"/>
<path d="M314.548 163.141C314.384 162.983 314.983 145.004 314.983 145.004" stroke="black" stroke-width="0.5" stroke-linecap="round" stroke-linejoin="round"/>
<path d="M293.981 170.922L291.228 160.774C291.023 160.018 290.661 159.313 290.166 158.705C289.67 158.098 289.052 157.601 288.352 157.248L278.423 152.241L279.507 156.641L283.198 159.406C283.318 159.458 283.426 159.533 283.515 159.628C283.604 159.723 283.673 159.835 283.718 159.957C283.763 160.079 283.782 160.21 283.775 160.34C283.767 160.47 283.734 160.597 283.675 160.713C283.391 161.277 282.819 161.313 282.254 161.034L266.361 153.019C266.361 153.019 260.661 156.871 267.966 164.962C275.271 173.053 281.678 173.397 289.698 179.411L293.981 170.922Z" fill="#E1AAA5"/>
<path d="M282.819 161.321L280.042 147.782C280.008 147.615 279.934 147.458 279.827 147.325C279.721 147.192 279.584 147.086 279.428 147.016L265.003 141.466C264.83 141.389 264.64 141.359 264.451 141.379C264.263 141.399 264.083 141.468 263.93 141.58C263.777 141.691 263.656 141.841 263.58 142.015C263.503 142.188 263.474 142.378 263.495 142.566L266.467 153.066L282.819 161.321Z" fill="#283237"/>
<path d="M293.286 168.876L331.057 186.305C333.399 187.328 335.242 189.234 336.187 191.608C337.132 193.982 337.102 196.633 336.103 198.985C333.671 204.703 326.565 206.692 319.073 203.063L288.46 178.491L293.286 168.876Z" fill="#E1AAA5"/>
<path d="M351.589 150.184L319.161 186.274C317.31 188.335 316.291 191.011 316.303 193.781C316.315 196.552 317.357 199.218 319.226 201.263C320.229 202.36 321.441 203.245 322.791 203.866C324.141 204.488 325.601 204.834 327.086 204.884C328.572 204.934 330.052 204.686 331.44 204.156C332.829 203.626 334.097 202.824 335.171 201.797L368.536 169.897L351.589 150.184Z" fill="#E1AAA5"/>
<path d="M365.398 180.534L337.955 161.781L359.001 133.139C359.001 133.139 371.252 137.319 374.259 148.845C377.266 160.371 374.26 167.851 365.398 180.534Z" fill="#EBB450"/>
<path d="M339.946 163.142L351.589 150.184" stroke="black" stroke-width="0.5" stroke-linecap="round" stroke-linejoin="round"/>
<path d="M361.012 177.537L365.062 180.304" stroke="black" stroke-width="0.5" stroke-linecap="round" stroke-linejoin="round"/>
<path d="M332.505 69.6991C321.931 69.477 313.18 77.8685 312.958 88.442C312.736 99.0155 321.127 107.767 331.701 107.989C342.274 108.211 351.026 99.8196 351.248 89.2461C351.47 78.6726 343.078 69.9211 332.505 69.6991Z" fill="black"/>
<path d="M341.136 101.869L351.212 131.708L334.301 134.716L328.213 112.029L341.136 101.869Z" fill="#E1AAA5"/>
<path d="M336.938 111.267L330.738 121.424L328.284 112.332L334.572 109.972L336.938 111.267Z" fill="#E1AAA5"/>
<path d="M328.545 71.6707C328.545 71.6707 309.968 75.8067 309.439 88.1267C308.91 100.447 311.448 117.996 318.129 118.797C324.81 119.598 338.751 115.097 341.01 105.897C343.269 96.6967 340.375 70.1007 328.545 71.6707Z" fill="#E1AAA5"/>
<path d="M311.121 99.5649L307.259 106.019C307.205 106.147 307.187 106.288 307.205 106.426C307.224 106.564 307.279 106.694 307.365 106.804C307.45 106.913 307.564 106.998 307.693 107.049C307.823 107.1 307.964 107.115 308.101 107.094L312.827 106.694L311.121 99.5649Z" fill="#E1AAA5"/>
<path d="M312.693 99.7622C312.74 100.014 312.86 100.246 313.039 100.43C313.217 100.613 313.446 100.74 313.697 100.793C313.947 100.846 314.208 100.824 314.446 100.729C314.684 100.634 314.888 100.471 315.034 100.26C315.179 100.049 315.258 99.7994 315.261 99.5433C315.264 99.2871 315.192 99.0358 315.052 98.821C314.913 98.6062 314.713 98.4376 314.477 98.3365C314.242 98.2354 313.982 98.2064 313.73 98.2532C313.563 98.284 313.403 98.3475 313.26 98.44C313.118 98.5326 312.995 98.6524 312.898 98.7925C312.802 98.9327 312.734 99.0905 312.699 99.2569C312.664 99.4233 312.662 99.595 312.693 99.7622Z" fill="black"/>
<path d="M311.116 92.6351C311.116 92.6351 310.916 94.1821 313.235 93.8971C314.903 93.7547 316.581 93.7624 318.248 93.9201C318.526 93.9486 318.808 93.895 319.056 93.7658C319.305 93.6367 319.511 93.4376 319.648 93.1931C319.735 93.0195 319.754 92.82 319.703 92.6327C319.652 92.4455 319.533 92.2839 319.37 92.1791C317.746 91.2485 315.886 90.8126 314.019 90.9251C311.262 91.2381 311.116 92.6351 311.116 92.6351Z" fill="black"/>
<path d="M311.854 109.952C312.716 110.103 313.602 110.051 314.441 109.8C315.281 109.549 316.05 109.106 316.688 108.506" stroke="black" stroke-width="0.36" stroke-linecap="round" stroke-linejoin="round"/>
<path d="M330.611 97.8998C330.611 97.8998 318.003 88.5548 329.576 82.5738L311.53 81.9388C311.53 81.9388 313.017 70.6888 331.83 69.6968L343.73 82.3888C343.73 82.3888 348.115 97.8398 342.137 104.825L340.263 105.125C339.066 105.318 337.842 105.266 336.665 104.972C335.488 104.679 334.383 104.149 333.417 103.416L330.611 97.8998Z" fill="black"/>
<path d="M328.545 98.445C328.644 99.5352 329.064 100.572 329.751 101.423C330.439 102.275 331.364 102.903 332.409 103.229C333.454 103.555 334.572 103.564 335.622 103.255C336.672 102.946 337.607 102.332 338.308 101.491C339.009 100.651 339.445 99.621 339.561 98.5325C339.677 97.444 339.468 96.3456 338.96 95.3761C338.452 94.4065 337.668 93.6095 336.706 93.0856C335.745 92.5618 334.65 92.3347 333.56 92.433C332.836 92.4983 332.132 92.7055 331.488 93.043C330.844 93.3805 330.273 93.8416 329.807 94.3999C329.341 94.9582 328.99 95.6028 328.773 96.2969C328.557 96.991 328.479 97.721 328.545 98.445Z" fill="#E1AAA5"/>
<path d="M335.497 96.053C335.497 96.053 332.527 95.789 331.404 99.753" stroke="black" stroke-width="0.5" stroke-linecap="round" stroke-linejoin="round"/>
<path d="M311.528 81.9379C311.528 81.9379 299.679 81.8859 308.29 67.3379L334.058 69.7999L311.528 81.9379Z" fill="black"/>
<path d="M326.817 90.8911L324.437 109.972L321.208 110.04C321.208 110.04 318.861 105.162 311.108 107.103C311.501 111.452 312.932 115.644 315.28 119.325C315.663 119.958 316.234 120.457 316.914 120.75C317.594 121.043 318.348 121.118 319.071 120.962C322.803 120.134 330.147 118.034 335.498 113.541L328.525 93.9311L326.817 90.8911Z" fill="black"/>
<path d="M93.9914 51.0098L161.274 51.0098C162.954 51.0098 164.315 49.6483 164.315 47.9688V3.04076C164.315 1.36127 162.954 -0.000232697 161.274 -0.000232697L93.9914 -0.000232697C92.3119 -0.000232697 90.9504 1.36127 90.9504 3.04076V47.9688C90.9504 49.6483 92.3119 51.0098 93.9914 51.0098Z" fill="#F9E1E2"/>
<path d="M139.431 43.4312L128.601 59.0072C128.482 59.1791 128.322 59.3194 128.137 59.416C127.951 59.5126 127.745 59.5627 127.535 59.5618C127.326 59.5609 127.12 59.5091 126.935 59.4109C126.75 59.3127 126.592 59.1711 126.474 58.9981L115.831 43.4312H139.431Z" fill="#F9E1E2"/>
<path d="M124.727 35.0849C129.561 35.1689 134.455 35.2349 138.9 34.9259C140.308 34.8259 141.523 32.5819 139.814 31.8729C140.576 31.6051 141.207 31.0549 141.576 30.3359C141.654 30.1484 141.694 29.9472 141.694 29.7439C141.693 29.5407 141.652 29.3396 141.572 29.1526C141.493 28.9656 141.376 28.7965 141.23 28.6552C141.084 28.5139 140.911 28.4033 140.722 28.3299C142.398 28.7479 143.059 26.0739 141.751 25.2109C142.474 24.641 142.974 23.8356 143.165 22.9349C143.25 22.4852 143.199 22.0203 143.017 21.6002C142.835 21.1802 142.531 20.8244 142.145 20.5789C141.597 20.3384 140.999 20.2354 140.403 20.2789L134.373 20.2349C134.917 17.0739 135.081 13.6349 133.481 10.8549C132.999 10.0189 131.706 9.01692 130.681 9.65992C129.718 10.2599 129.986 11.7599 130.034 12.7069C130.108 14.6777 129.635 16.6305 128.668 18.3491C127.7 20.0677 126.276 21.485 124.553 22.4439C124.553 22.4439 124.778 30.8139 124.727 35.0849Z" fill="#FF7378"/>
<path d="M122.975 22.4409H115.669V35.0729H122.975V22.4409Z" fill="#FF7378"/>
<path d="M251.232 49.3223H243.812C243.557 49.3224 243.304 49.2722 243.068 49.1748C242.833 49.0774 242.619 48.9345 242.438 48.7544C242.258 48.5742 242.115 48.3604 242.018 48.125C241.92 47.8896 241.869 47.6372 241.869 47.3823V20.6699C241.869 20.1548 242.074 19.6607 242.438 19.2964C242.803 18.932 243.296 18.7273 243.812 18.7271H335.866C336.381 18.7273 336.876 18.9321 337.24 19.2964C337.605 19.6607 337.809 20.1547 337.81 20.6699V47.3823C337.809 47.8972 337.604 48.3906 337.239 48.7544C336.875 49.1182 336.381 49.3225 335.866 49.3223H263.626L251.232 59.0889V49.3223Z" fill="#F9E1E2"/>
<path d="M324.216 30.4512H254.184" stroke="#FF7378" stroke-width="2" stroke-linecap="round" stroke-linejoin="round"/>
<path d="M270.678 38.583H254.184" stroke="#FF7378" stroke-width="2" stroke-linecap="round" stroke-linejoin="round"/>
</svg>
