<svg width="460" height="350" viewBox="0 0 460 350" fill="none" xmlns="http://www.w3.org/2000/svg">
<path d="M161.271 197.906H40.2705C36.4045 197.906 33.2705 201.04 33.2705 204.906V209.906C33.2705 213.772 36.4045 216.906 40.2705 216.906H161.271C165.137 216.906 168.271 213.772 168.271 209.906V204.906C168.271 201.04 165.137 197.906 161.271 197.906Z" fill="#A8B2BD"/>
<path d="M124.271 216.906H77.2705V228.906H124.271V216.906Z" fill="black"/>
<path d="M108.271 228.906H93.2705V304.906H108.271V228.906Z" fill="#C4CCD4"/>
<path d="M98.0102 293.982L57.9512 312.043L58.5212 317.162L100.291 303.751L98.0102 293.982Z" fill="#C4CCD4"/>
<path d="M102.885 293.982L142.949 312.042L142.379 317.161L100.609 303.75L102.885 293.982Z" fill="#C4CCD4"/>
<path d="M133.286 317.162C133.286 319.072 133.853 320.939 134.914 322.527C135.976 324.116 137.484 325.353 139.249 326.084C141.014 326.815 142.956 327.006 144.829 326.633C146.703 326.26 148.424 325.34 149.774 323.989C151.125 322.639 152.044 320.918 152.417 319.044C152.789 317.171 152.598 315.229 151.867 313.464C151.135 311.699 149.897 310.191 148.309 309.13C146.721 308.069 144.853 307.503 142.943 307.503C141.675 307.503 140.419 307.753 139.247 308.238C138.075 308.723 137.01 309.435 136.114 310.332C135.217 311.229 134.506 312.294 134.02 313.466C133.535 314.638 133.286 315.894 133.286 317.162Z" fill="black"/>
<path d="M48.293 317.162C48.2932 319.072 48.8598 320.939 49.9212 322.527C50.9826 324.116 52.4911 325.353 54.2559 326.084C56.0208 326.815 57.9627 327.006 59.8361 326.633C61.7096 326.26 63.4304 325.34 64.7809 323.989C66.1315 322.639 67.0511 320.918 67.4236 319.044C67.796 317.171 67.6046 315.229 66.8734 313.464C66.1422 311.699 64.9042 310.191 63.3159 309.13C61.7275 308.069 59.8601 307.503 57.95 307.503C56.6816 307.503 55.4256 307.753 54.2538 308.238C53.082 308.723 52.0172 309.435 51.1205 310.332C50.2237 311.229 49.5124 312.294 49.0272 313.466C48.5421 314.638 48.2926 315.894 48.293 317.162Z" fill="black"/>
<path d="M122.413 177.244H34.2292C31.2126 177.262 28.2872 176.211 25.9734 174.275C23.6596 172.34 22.1075 169.646 21.5932 166.674L0.17015 37.3306C-0.114479 35.5138 8.20458e-05 33.6568 0.505866 31.8887C1.01165 30.1207 1.89652 28.484 3.09892 27.0926C4.30132 25.7012 5.7924 24.5884 7.46844 23.8317C9.14449 23.0749 10.9653 22.6923 12.8042 22.7106H100.987C104.003 22.6917 106.929 23.7433 109.242 25.6784C111.556 27.6134 113.108 30.3065 113.623 33.2786L135.047 162.622C135.332 164.439 135.217 166.296 134.712 168.064C134.206 169.832 133.321 171.469 132.119 172.861C130.916 174.252 129.425 175.365 127.749 176.122C126.073 176.879 124.252 177.262 122.413 177.244Z" fill="#BEC8D2"/>
<path d="M231.501 284.598L245.829 316.881L226.493 323.814L208.17 289.419L231.501 284.598Z" fill="#E1AAA5"/>
<path d="M246.801 311.616L279.963 314.603C281.151 314.706 282.27 315.205 283.14 316.022C284.009 316.838 284.578 317.924 284.755 319.103L225.899 343.256L224.255 320.516L246.801 311.616Z" fill="black"/>
<path d="M227.307 349.58L287.817 324.757L285.448 318.827L224.937 343.651L227.307 349.58Z" fill="#FEFEFF"/>
<path d="M157.311 220.246L212.654 312.436L245.6 296.804L197.782 200.814C196.533 197.805 194.639 195.106 192.234 192.907C189.829 190.708 186.972 189.063 183.863 188.087C180.754 187.111 177.469 186.828 174.239 187.257C171.009 187.687 167.912 188.819 165.166 190.574C160.4 193.656 156.954 198.404 155.502 203.891C154.049 209.378 154.695 215.209 157.311 220.246Z" fill="#141937"/>
<path d="M50.4755 155.561C50.4755 155.561 36.4754 182.709 57.3674 195.104C60.4156 196.873 63.8347 197.906 67.3524 198.12L156.727 213.908L187.816 171.916L121.137 155.733L50.4755 155.561Z" fill="#1E2351"/>
<path d="M154.734 280.327L136.486 310.52L119.905 298.308L137.619 263.588L154.734 280.327Z" fill="#E1AAA5"/>
<path d="M141.328 308.36L157.628 337.714C158.217 338.756 158.441 339.965 158.266 341.15C158.091 342.334 157.526 343.426 156.66 344.254L103.703 308.797L121.332 294.574L141.328 308.36Z" fill="black"/>
<path d="M99.3389 313.542L153.783 350L157.283 344.674L102.84 308.212L99.3389 313.542Z" fill="#FEFEFF"/>
<path d="M163.126 183.393L119.167 281.655L150.537 300.31L201.85 206.181C203.596 203.412 204.725 200.299 205.16 197.054C205.595 193.809 205.325 190.509 204.369 187.378C203.413 184.247 201.794 181.359 199.621 178.91C197.449 176.461 194.774 174.509 191.779 173.187C186.598 170.946 180.76 170.753 175.442 172.647C170.125 174.541 165.723 178.381 163.126 183.393Z" fill="#1E2351"/>
<path d="M186.433 131.632L172.053 130.511L172.502 145.062L184.95 145.056L186.433 131.632Z" fill="#E1AAA5"/>
<path d="M185.368 131.634C185.368 131.634 218.338 118.782 214.675 145.04H183.026L185.368 131.634Z" fill="#E1AAA5"/>
<path d="M136.588 71.7827C136.588 71.7827 151.435 102.752 154.645 134.449C155.004 138.002 151.426 141.531 148.668 143.761C142.442 148.795 131.968 143.761 129.64 136.44C129.64 136.44 111.673 76.8777 113.622 75.5147C114.086 75.1907 136.588 71.7827 136.588 71.7827Z" fill="#647BF4"/>
<path d="M145.985 123.347L191.462 122.191L188.062 145.551L142.557 145.79C140.831 145.893 139.113 145.487 137.616 144.623C135.075 143.098 133.211 140.663 132.402 137.813C131.592 134.963 131.898 131.911 133.258 129.279C134.414 127.013 136.295 125.198 138.601 124.123C140.907 123.048 143.506 122.775 145.985 123.347Z" fill="#647BF4"/>
<path d="M99.5396 59.8188L130.223 68.0049C131.723 68.1938 133.091 68.9608 134.035 70.1429C134.979 71.3249 135.424 72.8286 135.276 74.3339L115.452 155.768C115.452 155.768 104.234 168.242 49.5986 155.608L57.2366 72.4868C56.8476 69.2868 60.8446 64.2589 64.0606 63.9029L99.5396 59.8188Z" fill="#647BF4"/>
<path d="M123.554 120.969C122.922 123.742 129.892 93.2379 129.939 92.9629L123.554 120.969Z" fill="#647BF4"/>
<path d="M123.554 120.969C122.922 123.742 129.892 93.2379 129.939 92.9629" stroke="black" stroke-width="0.5" stroke-miterlimit="10"/>
<path d="M85.1248 80.4459C85.1248 80.4459 68.4009 113.298 49.5249 139.773C47.4089 142.74 42.4128 144.216 38.7528 144.059C30.4888 143.706 26.9869 134.876 30.1109 127.689C30.1109 127.689 56.8108 66.9409 60.4708 65.9479C61.0338 65.7969 85.1248 80.4459 85.1248 80.4459Z" fill="#647BF4"/>
<path d="M104.234 132.07L89.8545 130.949L90.3035 145.5L102.751 145.494L104.234 132.07Z" fill="#E1AAA5"/>
<path d="M103.17 132.069C103.17 132.069 136.14 119.217 132.475 145.469H100.828L103.17 132.069Z" fill="#E1AAA5"/>
<path d="M42.3075 121.527L93.9965 123.099L92.9885 146.499L39.2825 145.356C37.4856 145.098 35.7704 144.437 34.2658 143.421C32.7611 142.405 31.506 141.062 30.5947 139.492C29.6835 137.922 29.1397 136.166 29.0042 134.356C28.8687 132.546 29.1451 130.728 29.8125 129.04C30.7624 126.576 32.507 124.499 34.7702 123.138C37.0333 121.778 39.6858 121.21 42.3075 121.527Z" fill="#647BF4"/>
<path d="M75.1603 92.1367L61.4863 122.111L93.9963 123.1L94.0264 130.948" stroke="black" stroke-width="0.5" stroke-miterlimit="10"/>
<path d="M61.4856 122.11L54.2646 125.691" stroke="black" stroke-width="0.5" stroke-miterlimit="10"/>
<path d="M115.682 63.974L105.814 61.237L94.9243 60.126L86.5332 61.237C86.5332 61.237 87.0602 72.282 106.089 74.245C122.7 75.956 115.682 63.974 115.682 63.974Z" fill="#E1AAA5"/>
<path d="M111.825 44.378C123.367 44.131 132.524 34.5739 132.277 23.0315C132.03 11.4892 122.473 2.33257 110.93 2.57959C99.3881 2.82661 90.2315 12.3838 90.4785 23.9261C90.7255 35.4684 100.283 44.625 111.825 44.378Z" fill="#371405"/>
<path d="M101.527 37.7041L92.8398 62.2271L111.304 65.5161L115.637 48.8011L101.527 37.7041Z" fill="#E1AAA5"/>
<path d="M106.113 47.9648L112.884 59.0538L115.564 49.1268L108.699 46.5498L106.113 47.9648Z" fill="#E1AAA5"/>
<path d="M115.275 4.73192C115.275 4.73192 135.558 9.24792 136.136 22.7039C136.714 36.1599 133.942 55.3159 126.648 56.1899C119.354 57.0639 104.132 52.1449 101.666 42.1049C99.1998 32.0649 102.355 3.01792 115.275 4.73192Z" fill="#E1AAA5"/>
<path d="M134.299 35.187L138.516 42.234C138.574 42.3741 138.594 42.5272 138.574 42.6776C138.553 42.828 138.493 42.9703 138.4 43.0898C138.306 43.2093 138.182 43.3017 138.041 43.3574C137.9 43.4132 137.747 43.4303 137.597 43.407L132.437 42.971L134.299 35.187Z" fill="#E1AAA5"/>
<path d="M132.579 35.4027C132.528 35.6777 132.396 35.9314 132.201 36.1318C132.006 36.3321 131.756 36.47 131.482 36.5281C131.209 36.5862 130.924 36.5619 130.664 36.4582C130.404 36.3545 130.181 36.1761 130.023 35.9455C129.865 35.715 129.778 35.4427 129.775 35.163C129.771 34.8834 129.85 34.6089 130.003 34.3744C130.155 34.1399 130.374 33.9559 130.631 33.8456C130.888 33.7353 131.172 33.7037 131.447 33.7548C131.629 33.7884 131.804 33.8578 131.959 33.9589C132.115 34.06 132.249 34.1908 132.355 34.3439C132.46 34.497 132.534 34.6693 132.572 34.851C132.611 35.0327 132.613 35.2202 132.579 35.4027Z" fill="black"/>
<path d="M134.303 27.6208C134.303 27.6208 134.524 29.3098 131.99 28.9978C130.169 28.8423 128.337 28.8507 126.517 29.0228C126.214 29.0531 125.908 28.9943 125.637 28.8534C125.367 28.7126 125.143 28.4959 124.993 28.2298C124.898 28.0408 124.876 27.8232 124.931 27.6188C124.987 27.4145 125.116 27.2378 125.293 27.1228C127.064 26.1087 129.093 25.6339 131.13 25.7568C134.14 26.0948 134.303 27.6208 134.303 27.6208Z" fill="black"/>
<path d="M133.5 46.5292C132.558 46.6947 131.59 46.6382 130.674 46.3643C129.758 46.0904 128.918 45.6065 128.222 44.9512" stroke="black" stroke-width="0.36" stroke-linecap="round" stroke-linejoin="round"/>
<path d="M113.019 33.3702C113.019 33.3702 126.786 23.1702 114.151 16.6362L133.851 15.9422C133.851 15.9422 132.228 3.6592 111.683 2.5752L98.6981 16.4342C98.6981 16.4342 93.9101 33.3042 100.437 40.9342L102.483 41.2642C103.79 41.4754 105.127 41.419 106.412 41.0984C107.697 40.7778 108.903 40.1998 109.958 39.3992L113.019 33.3702Z" fill="#371405"/>
<path d="M115.274 33.9659C115.166 35.1561 114.708 36.2877 113.957 37.2174C113.206 38.1471 112.196 38.8333 111.056 39.1892C109.915 39.5452 108.694 39.5548 107.548 39.2169C106.401 38.8791 105.381 38.2089 104.615 37.2912C103.85 36.3734 103.374 35.2493 103.247 34.0609C103.12 32.8725 103.349 31.6733 103.904 30.6148C104.459 29.5563 105.315 28.6861 106.364 28.1142C107.414 27.5424 108.609 27.2945 109.799 27.4019C110.59 27.4733 111.359 27.6997 112.062 28.0682C112.765 28.4368 113.388 28.9402 113.897 29.5497C114.405 30.1593 114.788 30.863 115.025 31.6208C115.261 32.3785 115.346 33.1754 115.274 33.9659Z" fill="#E1AAA5"/>
<path d="M107.684 31.3541C107.684 31.3541 110.927 31.0651 112.153 35.3901L107.684 31.3541Z" fill="#E1AAA5"/>
<path d="M107.684 31.3541C107.684 31.3541 110.927 31.0651 112.153 35.3901" stroke="black" stroke-width="0.5" stroke-linecap="round" stroke-linejoin="round"/>
<path d="M133.854 15.942C133.854 15.942 146.791 15.886 137.389 0L109.255 2.689L133.854 15.942Z" fill="#371405"/>
<path d="M117.162 25.7178L119.762 46.5508L123.287 46.6258C123.287 46.6258 125.849 41.2998 134.31 43.4198C133.883 48.1692 132.322 52.7468 129.759 56.7678C129.34 57.4592 128.717 58.0029 127.975 58.3233C127.233 58.6436 126.41 58.7245 125.62 58.5548C121.546 57.6548 113.526 55.3548 107.684 50.4548L115.297 29.0368L117.162 25.7178Z" fill="#371405"/>
<path d="M141.425 152.906L106.425 326.906" stroke="#273237" stroke-width="2.003" stroke-miterlimit="10"/>
<path d="M361.425 152.906L395.425 326.906" stroke="#273237" stroke-width="2.003" stroke-miterlimit="10"/>
<path d="M452.81 160.697H45.8215C43.8446 160.623 41.9777 159.768 40.6302 158.32C39.2827 156.871 38.5646 154.948 38.6335 152.971C38.5641 150.993 39.2819 149.069 40.6294 147.62C41.977 146.171 43.8443 145.316 45.8215 145.243H452.81C454.787 145.316 456.654 146.171 458.002 147.62C459.35 149.069 460.068 150.993 460 152.971C460.068 154.948 459.35 156.872 458.002 158.32C456.654 159.769 454.787 160.623 452.81 160.697Z" fill="#273237"/>
<path d="M247.381 121.763L377.745 121.763C379.331 121.763 380.617 120.477 380.617 118.891V35.2407C380.617 33.6545 379.331 32.3687 377.745 32.3687L247.381 32.3687C245.795 32.3687 244.509 33.6545 244.509 35.2407V118.891C244.509 120.477 245.795 121.763 247.381 121.763Z" fill="#C4CCD4"/>
<path d="M250.353 121.763L380.717 121.763C382.303 121.763 383.589 120.477 383.589 118.891V35.2407C383.589 33.6545 382.303 32.3687 380.717 32.3687L250.353 32.3687C248.767 32.3687 247.481 33.6545 247.481 35.2407V118.891C247.481 120.477 248.767 121.763 250.353 121.763Z" fill="#C4CCD4"/>
<path d="M306.78 73.2886L274.304 121.763H321.015L306.78 73.2886Z" fill="#A8B2BD"/>
<path d="M330.059 72.0508H309.17C308.732 72.0512 308.298 72.1491 307.902 72.3373C307.506 72.5256 307.156 72.7996 306.879 73.1395C306.601 73.4794 306.402 73.8767 306.297 74.3027C306.192 74.7287 306.183 75.1728 306.27 75.6028L319.759 142.033C319.895 142.702 320.258 143.303 320.787 143.736C321.315 144.168 321.977 144.404 322.659 144.405H344.589C345.032 144.405 345.469 144.305 345.868 144.114C346.267 143.923 346.619 143.645 346.896 143.3C347.174 142.955 347.37 142.552 347.471 142.121C347.573 141.69 347.576 141.242 347.481 140.81L332.953 74.3808C332.809 73.7205 332.443 73.1294 331.917 72.7056C331.391 72.2818 330.735 72.0507 330.059 72.0508Z" fill="#919BA5"/>
<path d="M299.558 139.659H338.097V144.405H299.558C299.246 144.405 298.937 144.344 298.649 144.224C298.361 144.105 298.099 143.93 297.879 143.71C297.658 143.489 297.483 143.227 297.364 142.939C297.245 142.651 297.183 142.342 297.184 142.031C297.184 141.719 297.245 141.411 297.365 141.123C297.484 140.835 297.659 140.573 297.879 140.353C298.1 140.133 298.361 139.958 298.649 139.839C298.937 139.72 299.246 139.659 299.558 139.659Z" fill="#919BA5"/>
</svg>
